<svg xmlns="http://www.w3.org/2000/svg" viewBox="0 0 1417.32 1417.32"><defs><style>.cls-1,.cls-3{fill:#231f20;}.cls-2{fill:#fff;}.cls-3{stroke:#fff;stroke-miterlimit:10;stroke-width:5px;}</style></defs><title>Artboard 1</title><g id="Layer_2" data-name="Layer 2"><circle class="cls-1" cx="706.98" cy="716.53" r="652.71"/></g><g id="Layer_1" data-name="Layer 1"><path class="cls-2" d="M369.37,422.77c-47.43,28-81.25,74.68-100.05,125.8-19.88,54.06-21.52,114-5.35,169.23,15.62,53.34,47.35,103.13,93.58,134.86,51.95,35.65,115.91,43.55,176.9,50.89,64.36,7.76,129.1,13.75,194,13.41,65.11-.35,130.68-7.19,193.47-24.93,56.2-15.88,111-39.92,156.28-77.37,44.78-37,76.36-87.77,88.2-144.81,12.1-58.32,6.08-120.76-20.31-174.43-24-48.86-65.55-89.33-116.56-109a168,168,0,0,0-34.7-9.27c-6.66-1-13.44,1.7-15.38,8.73-1.63,5.93,2,14.34,8.73,15.38a167.25,167.25,0,0,1,34.7,9.27c1.34.52,2.68,1,4,1.6-1.89-.79,1.62.72,2.11.95q4.23,1.9,8.37,4,8.34,4.29,16.22,9.4,3.71,2.4,7.31,5,1.8,1.29,3.58,2.62c.51.38,1,.76,1.52,1.15-1.38-1.06.75.6,1,.78q7.27,5.81,14,12.25,7.05,6.75,13.47,14.11,3,3.47,5.89,7.05c.55.69,1.1,1.37,1.64,2.07-.18-.23-.8-1,.06.09,1.06,1.4,2.11,2.83,3.14,4.26,32,44.48,45,97.83,41.74,152.28-3.19,53.38-24.1,105.3-60.71,144.67-18.43,19.81-37.65,34.79-60.47,48.66A376.2,376.2,0,0,1,991.12,840q-4.18,2-8.4,3.87l-4.22,1.85-1.81.79c-3.87,1.67,1-.41-1.24.52q-10.17,4.24-20.53,8c-58.4,21.41-119.45,32.09-181.11,35.52-62.59,3.48-125.36-.06-187.66-6.31-29.93-3-61.09-6.46-89.71-10.67-29-4.25-57.91-10.07-85.25-20.77a191.8,191.8,0,0,1-65.51-42.33A199.38,199.38,0,0,1,322,782.34a247.77,247.77,0,0,1-19.66-33.76,235,235,0,0,1-13.86-36.1q-3-10-5.18-20.2-1-4.77-1.88-9.59c-.28-1.6-.55-3.21-.81-4.82-.1-.69-.21-1.38-.31-2.07-.07-.46-.45-3.1-.24-1.53A248.15,248.15,0,0,1,278,633a219.28,219.28,0,0,1,4.36-38.39,244.38,244.38,0,0,1,26.28-72.36c12.54-22.63,26.6-40.89,46.17-58.19q3.31-2.92,6.73-5.69c.45-.36,3.23-2.53,1.91-1.52q1.74-1.33,3.51-2.61,7.28-5.28,15-9.83c13.85-8.16,1.29-29.78-12.62-21.59Z"/><path class="cls-2" d="M389.32,439l15-58,14.93-57.74,4.18-16.19,2.12-8.21a61.91,61.91,0,0,1,2-7.22l-1.26,3a9.89,9.89,0,0,1,1.27-2.24l-2,2.53a7.48,7.48,0,0,1,.74-.75l-2.53,1.95a6,6,0,0,1,1.24-.74l-3,1.26a5.89,5.89,0,0,1,1-.26l-3.32.45a5.71,5.71,0,0,1,1.37,0l-3.32-.45a8.8,8.8,0,0,1,1.73.51l-3-1.26a14.31,14.31,0,0,1,2.7,1.64l-2.53-2a89.71,89.71,0,0,1,8.89,8.66q4.41,4.56,8.7,9.24,8.64,9.42,16.75,19.29,4.65,5.66,9.11,11.44l-1.95-2.53a498.54,498.54,0,0,1,29.51,42.71q3.92,6.35,7.64,12.81a12.87,12.87,0,0,0,7.47,5.74A12.51,12.51,0,0,0,518.25,394a13.15,13.15,0,0,0-1.26-9.63,511.43,511.43,0,0,0-68.54-92.63q-4.71-5-9.57-9.9a59.6,59.6,0,0,0-7.14-6.22,20.54,20.54,0,0,0-10.93-3.77,16.82,16.82,0,0,0-8.33,2,14.62,14.62,0,0,0-4.51,3.45,25.46,25.46,0,0,0-5.34,10.36c-1.35,5-2.59,10-3.88,15L383,363.73l-15.8,61.12-1.94,7.49a13.07,13.07,0,0,0,1.26,9.64,12.51,12.51,0,0,0,17.11,4.48,12.91,12.91,0,0,0,5.74-7.47Z"/><path class="cls-2" d="M506,398.2q7.8-3.49,15.66-6.82l-3,1.26a754.53,754.53,0,0,1,73.06-26.49,740.11,740.11,0,0,1,74.52-18.57q21.24-4.14,42.7-7l-3.32.45a725.06,725.06,0,0,1,126.17-5.81q17.72.74,35.38,2.36c3,.28,6.77-1.59,8.84-3.66a12.51,12.51,0,0,0,0-17.68,14.16,14.16,0,0,0-8.84-3.66,720.48,720.48,0,0,0-146.59,1.6c-25.23,2.85-50.33,6.87-75.15,12.21q-36.1,7.77-71.33,19.11c-24.55,7.9-48.64,17.13-72.29,27.41-2.82,1.22-5.63,2.47-8.44,3.72s-5,4.77-5.74,7.48a12.8,12.8,0,0,0,1.26,9.63,12.57,12.57,0,0,0,7.47,5.74A14.38,14.38,0,0,0,506,398.2Z"/><path class="cls-2" d="M873.28,334.72,910.42,295l37-39.59,10.39-11.13c3.26-3.49,6.36-7.38,10.1-10.38l-2.53,2a14.84,14.84,0,0,1,3-1.84l-3,1.26a10.08,10.08,0,0,1,1.7-.51l-3.32.45a6.3,6.3,0,0,1,1.68,0l-3.32-.45a5.62,5.62,0,0,1,1,.29l-3-1.26a6.94,6.94,0,0,1,1.18.68l-2.53-2a8,8,0,0,1,1.12,1.14l-2-2.53a9.77,9.77,0,0,1,1,1.75l-1.26-3a23.6,23.6,0,0,1,1.45,6l-.45-3.32c2.63,19.85,5.17,39.72,7.75,59.58l7.75,59.72,4.38,33.7a9.49,9.49,0,0,0,1.08,4.82,9.29,9.29,0,0,0,2.58,4,12.7,12.7,0,0,0,8.84,3.66,12.57,12.57,0,0,0,8.84-3.66c2.07-2.26,4.08-5.64,3.66-8.84l-8.17-62.94-8.18-62.94-2.06-15.86-1-7.93c-.42-3.19-.69-6.43-1.38-9.58-1.7-7.88-7.34-14.79-15.63-15.91a16.91,16.91,0,0,0-7,.29,21,21,0,0,0-5.52,2.3,33.64,33.64,0,0,0-7.07,5.69c-7.37,7.59-14.46,15.48-21.68,23.21l-21.47,23L861.05,311.2,855.6,317a13,13,0,0,0-3.66,8.84,12.73,12.73,0,0,0,3.66,8.84,12.6,12.6,0,0,0,8.84,3.66,12.74,12.74,0,0,0,8.84-3.66Z"/><path class="cls-2" d="M584.47,477.6c-48-14.89-101.8-2-140.77,33.82-7.61,7-14.82,15-19.17,25.08s-5.48,22.54-1,32.53c5.18,11.53,16.39,17.43,27.09,21.25,44.24,15.76,95.89,8.21,131-26.81,12.06-12,22.33-28.08,23.61-46.48s-9.21-38.55-25-40.94"/><path class="cls-2" d="M876.08,454.09c-47.56.63-94.61,23.76-128.11,63-1.75,2.05-3.57,4.43-3.6,7.31,0,4.18,3.53,7,6.72,8.94,40.65,24.71,87,36.7,132.82,34.36,21.12-1.08,45.35-7.77,54.5-29.89,8.56-20.71-.88-46.59-16.34-60.92s-35.47-19.85-54.76-25"/><path class="cls-2" d="M659.2,534c-16.72,15.32-30,35.64-38.24,58.45-1.12,3.11-2.08,6.92-.36,9.63,1.89,3,5.73,2.68,8.87,2a316.42,316.42,0,0,0,74.66-25.46,195.75,195.75,0,0,1-42.21-38.4"/><path class="cls-2" d="M643.51,598.43a62.37,62.37,0,0,1,4.07,15.19l-.45-3.33a72.57,72.57,0,0,1,0,19l.44-3.32a85.76,85.76,0,0,1-6,21.64l1.26-3a89.78,89.78,0,0,1-11.38,19.56l2-2.53a78,78,0,0,1-13.83,14l2.53-2a93.09,93.09,0,0,1-20.41,11.8l3-1.26A122,122,0,0,1,574,692.2l3.32-.45A187.22,187.22,0,0,1,558,693.28q-4.79.15-9.59.1a80.7,80.7,0,0,1-9.46-.36l3.32.45a15.22,15.22,0,0,1-3.63-1l3,1.26a11,11,0,0,1-2-1.17l2.53,1.95A7.88,7.88,0,0,1,541,693.4l2,2.53a8.37,8.37,0,0,1-1-1.78l1.26,3a10.06,10.06,0,0,1-.62-2.35l.45,3.32a9,9,0,0,1,0-2.08l-.45,3.32a7,7,0,0,1,.45-1.63l-1.26,3a6.62,6.62,0,0,1,.54-.93l-1.95,2.53a5.39,5.39,0,0,1,.75-.76l-2.53,2,.22-.16c2.71-1.93,4.83-4.16,5.74-7.47a12.71,12.71,0,0,0-1.26-9.63,12.57,12.57,0,0,0-7.47-5.74c-3.11-.71-6.92-.67-9.63,1.26a18.55,18.55,0,0,0-5.45,5.39,16.74,16.74,0,0,0-2,4.57,20.22,20.22,0,0,0-.15,10.16,17.48,17.48,0,0,0,1.18,3.39,15.34,15.34,0,0,0,1.67,3.28,20.45,20.45,0,0,0,4.38,4.65,23.36,23.36,0,0,0,6.21,3.4,27.65,27.65,0,0,0,8.27,1.56c1.83.15,3.67.15,5.5.19,3.87.06,7.75.06,11.62-.05,16.37-.44,33.13-2.45,48.63-8s30.42-14.19,41.48-26.68a101.52,101.52,0,0,0,22.08-40.76,91.85,91.85,0,0,0,3.18-23.31,76.24,76.24,0,0,0-3.39-23.05c-.51-1.61-1.1-3.18-1.74-4.74a13.92,13.92,0,0,0-5.74-7.47,12.81,12.81,0,0,0-9.63-1.26,12.62,12.62,0,0,0-7.47,5.75c-1.46,2.76-2.51,6.6-1.26,9.63Z"/><path class="cls-2" d="M642.74,609.71a181,181,0,0,0,23.72,38.47,116.46,116.46,0,0,0,13.92,14.6,103,103,0,0,0,18.24,13c12,6.53,25.55,10.4,39.29,9.57,13.13-.8,26.27-4.86,37.11-12.42a68.48,68.48,0,0,0,14.76-13.46,76,76,0,0,0,6.63-9.48,77.23,77.23,0,0,0,4.93-10.79c.56-1.47,1-3,1.49-4.46a12.89,12.89,0,0,0-1.26-9.63,12.49,12.49,0,0,0-17.1-4.49,13.19,13.19,0,0,0-5.75,7.47,57.35,57.35,0,0,1-2.19,6.22l1.26-3A57.06,57.06,0,0,1,770.45,644l1.95-2.53a57.65,57.65,0,0,1-10.22,10.19l2.53-2a60.8,60.8,0,0,1-13.37,7.78l3-1.26a61.78,61.78,0,0,1-15.4,4.2l3.33-.45a58.94,58.94,0,0,1-15.53,0l3.32.44a60.55,60.55,0,0,1-15.16-4.26l3,1.26a81.2,81.2,0,0,1-17.76-10.48l2.53,2a114.35,114.35,0,0,1-20.2-20.51l2,2.53a172.08,172.08,0,0,1-20.09-33.8c-1.22-2.68-4.74-5-7.47-5.74a12.76,12.76,0,0,0-9.63,1.26,12.57,12.57,0,0,0-5.74,7.47L641,603.4a12.48,12.48,0,0,0,1.71,6.31Z"/><path class="cls-2" d="M619,716.94c15.45,2.71,31.35,5.66,47.09,4,13.39-1.37,26.72-5.32,37.59-13.52a69.6,69.6,0,0,0,9.29-8.1A68.23,68.23,0,0,0,720.79,689a12.89,12.89,0,0,0,1.26-9.63,12.71,12.71,0,0,0-5.75-7.47,12.58,12.58,0,0,0-9.63-1.26,13.26,13.26,0,0,0-7.47,5.74,55.16,55.16,0,0,1-3.14,4.57l2-2.53a52.3,52.3,0,0,1-9.22,9.17l2.53-2a58.09,58.09,0,0,1-12.61,7.3l3-1.26a65.77,65.77,0,0,1-16.53,4.46l3.32-.45c-9.88,1.3-19.85.68-29.7-.64l3.32.45c-5.52-.75-11-1.71-16.5-2.67-3.38-.59-6.56-.53-9.63,1.26a12.5,12.5,0,0,0-4.48,17.1c1.66,2.59,4.31,5.2,7.47,5.75Z"/><ellipse class="cls-3" cx="530.08" cy="528.82" rx="23.89" ry="18.9"/><ellipse class="cls-3" cx="853.01" cy="511.36" rx="27.59" ry="17.46"/><path class="cls-2" d="M390,922.89a360.58,360.58,0,0,0-39.59-19,170,170,0,0,0-41.58-10.94c-24.64-3.19-51,1.57-72,15.25a97.85,97.85,0,0,0-28,27.7,105.94,105.94,0,0,0-14.61,33.38c-5.93,24.15-3.86,51.78,10.94,72.49,6.79,9.5,15.48,18,26.16,23a67.1,67.1,0,0,0,9,3.56,56.77,56.77,0,0,0,9.61,1.82,45.62,45.62,0,0,0,16.17-1.05,53.23,53.23,0,0,0,9.21-3.38l-18.37-14.12c-4.76,12.39-4.92,26.2-2.45,39.1a72.57,72.57,0,0,0,16.69,34.12,49.86,49.86,0,0,0,13.92,11.1,47.55,47.55,0,0,0,19.71,5.46,45.71,45.71,0,0,0,17.8-2.63,62.13,62.13,0,0,0,18.53-10.61A61.19,61.19,0,0,0,354.86,1112a62.49,62.49,0,0,0,8-21.18l-22.85,3c11.88,23.76,35.53,42.08,62.05,45.85a78.5,78.5,0,0,0,20,.69,76.4,76.4,0,0,0,19.24-4.36,74.74,74.74,0,0,0,18-9.63,88.71,88.71,0,0,0,15.19-14c18.34-21.94,27.41-50.51,28-78.91a125.09,125.09,0,0,0-6.16-42,120.61,120.61,0,0,0-22.93-40.26C455.1,929.94,428.1,915.67,399.91,915a73.31,73.31,0,0,0-8.77.32c-3.39.32-6.36,1.18-8.84,3.66a12.49,12.49,0,0,0,0,17.67c2.31,2.13,5.58,4,8.84,3.67a75.67,75.67,0,0,1,17.15.35l-3.32-.45A84.2,84.2,0,0,1,426,946l-3-1.26a93.74,93.74,0,0,1,20.66,12.17l-2.53-2A101.6,101.6,0,0,1,459,972.9L457,970.37a106.17,106.17,0,0,1,13.7,23.52l-1.26-3a109.48,109.48,0,0,1,7.4,27.54l-.45-3.32a125,125,0,0,1-.08,32.68l.45-3.33a122.59,122.59,0,0,1-8.39,31.07l1.26-3a100.86,100.86,0,0,1-12.76,22.09l2-2.53a79.28,79.28,0,0,1-13.87,14l2.53-2a65.36,65.36,0,0,1-14.28,8.37l3-1.26a65.21,65.21,0,0,1-16.17,4.39l3.32-.45a67.29,67.29,0,0,1-17.65,0l3.32.45a70.67,70.67,0,0,1-17.86-4.91l3,1.26a72.93,72.93,0,0,1-15.76-9.2l2.53,2a74.33,74.33,0,0,1-13.38-13.38l1.95,2.53a78.16,78.16,0,0,1-7.9-12.66l-1.95-2.53-2.53-2a12.39,12.39,0,0,0-8-1.48,11.84,11.84,0,0,0-5.92,2.46c-2,1.53-4,3.93-4.48,6.49a53.78,53.78,0,0,1-3.43,11.72l1.26-3a54.13,54.13,0,0,1-6.67,11.44l2-2.53a51.76,51.76,0,0,1-9.24,9.29l2.53-2a46.89,46.89,0,0,1-9.94,5.86l3-1.26a40.09,40.09,0,0,1-10.07,2.8l3.32-.45a35.35,35.35,0,0,1-9,0l3.32.45a33.8,33.8,0,0,1-8.44-2.28l3,1.26a37.12,37.12,0,0,1-7.88-4.63l2.53,2a46.34,46.34,0,0,1-8.14-8.18l2,2.53a58.44,58.44,0,0,1-7.52-13l1.26,3a67.37,67.37,0,0,1-4.58-16.9l.45,3.32a63.29,63.29,0,0,1-.05-16.5l-.45,3.32a54.36,54.36,0,0,1,3.11-12.23l.45-3.33-.45-3.32a12.36,12.36,0,0,0-4.48-6.49,11.8,11.8,0,0,0-5.91-2.46,6.24,6.24,0,0,0-3.32,0,9.25,9.25,0,0,0-4.65,1.48l-.65.28,3-1.26a35.34,35.34,0,0,1-8.9,2.46l3.33-.44a37.06,37.06,0,0,1-9.7,0l3.32.45a42.62,42.62,0,0,1-10.5-2.95l3,1.26a51.9,51.9,0,0,1-11-6.5l2.53,1.95a61.39,61.39,0,0,1-10.85-10.88l2,2.53a65.91,65.91,0,0,1-8.29-14.22l1.26,3a70.73,70.73,0,0,1-4.72-17.69l.45,3.33a87,87,0,0,1,.06-22.85l-.45,3.33a97.23,97.23,0,0,1,6.68-24.44l-1.26,3a93.31,93.31,0,0,1,11.93-20.61l-2,2.53a82.86,82.86,0,0,1,14.61-14.62l-2.53,2a86.51,86.51,0,0,1,19.13-11.13l-3,1.26a94.77,94.77,0,0,1,23.85-6.4l-3.32.45a109,109,0,0,1,28.7.14l-3.33-.45c14.35,2,28.22,6.38,41.54,12l-3-1.26a359.64,359.64,0,0,1,32.83,16.21,13,13,0,0,0,9.63,1.26,12.77,12.77,0,0,0,7.47-5.74c3.09-5.86,1.63-13.74-4.49-17.11Z"/><path class="cls-2" d="M1069.7,889.74a131.05,131.05,0,0,0-52.4-8.11,141.66,141.66,0,0,0-53.65,13.72c-29.92,14.19-54,39.6-70.15,68.18a202.45,202.45,0,0,0-19.31,47.27c-5,18.76-7.84,38.92-3.36,58.08a61.77,61.77,0,0,0,29.53,39.83,72.64,72.64,0,0,0,43.52,8.47c33.93-4,63-25.73,81.34-53.86,2.22-3.39,4.26-6.89,6.14-10.47l-22.85-3c4.39,20.63,17.45,40.4,36,50.83a56.75,56.75,0,0,0,29.79,7.5,61.84,61.84,0,0,0,30.23-9.43,72.07,72.07,0,0,0,25.12-27.11l-19.64,2.53c10.69,9.44,23.8,16.44,38,18.64a73.48,73.48,0,0,0,20.83.65,81.5,81.5,0,0,0,11.71-2.15,83.65,83.65,0,0,0,11.13-4.15c25-10.94,41.55-36.86,48.06-62.59a112.69,112.69,0,0,0-10.83-82.37,124.26,124.26,0,0,0-55.42-51.58,163.87,163.87,0,0,0-45.22-13.27,374.09,374.09,0,0,0-47.41-3.47c-3.73-.08-7.45-.12-11.18-.17-6.54-.09-12.8,5.81-12.5,12.5a12.73,12.73,0,0,0,12.5,12.5c17.63.22,35.3.51,52.8,2.85l-3.32-.45a162.17,162.17,0,0,1,40.93,10.69l-3-1.26a115.55,115.55,0,0,1,25.09,14.62l-2.53-1.95A116,116,0,0,1,1200.48,944l-2-2.53a107.77,107.77,0,0,1,13.71,23.38l-1.26-3a101.12,101.12,0,0,1,7,25.56l-.44-3.32a99.44,99.44,0,0,1-.08,25.68l.45-3.33a103.11,103.11,0,0,1-7.06,26l1.26-3a91.5,91.5,0,0,1-11.44,19.81l1.95-2.53a73.66,73.66,0,0,1-12.95,13.1l2.53-2a63.67,63.67,0,0,1-13.78,8.06l3-1.26a63.13,63.13,0,0,1-15.58,4.26l3.33-.45a63.37,63.37,0,0,1-16.51,0l3.32.45a64.58,64.58,0,0,1-16.08-4.41l3,1.26a65.71,65.71,0,0,1-13.92-8.12l2.53,2c-1.27-1-2.51-2-3.72-3.08a12.6,12.6,0,0,0-10.5-3.43,12,12,0,0,0-9.13,6,65.07,65.07,0,0,1-5.67,8.9l2-2.53a60.27,60.27,0,0,1-10.71,10.76l2.53-2a55.36,55.36,0,0,1-11.74,6.89l3-1.26a49.27,49.27,0,0,1-12.25,3.42l3.32-.45a45.27,45.27,0,0,1-11.63,0l3.32.44a44.88,44.88,0,0,1-11-3l3,1.26a53.05,53.05,0,0,1-11.68-6.9l2.53,2a62.92,62.92,0,0,1-10.68-10.77l2,2.53a69.79,69.79,0,0,1-9-15.48l1.26,3a72.08,72.08,0,0,1-3.93-12.65,12.23,12.23,0,0,0-10.4-9c-4.72-.63-10.13,1.55-12.45,6a126.06,126.06,0,0,1-11.8,18.42l2-2.53a116.19,116.19,0,0,1-20.4,20.46l2.53-1.95a102.44,102.44,0,0,1-22.56,13.25l3-1.26a85.91,85.91,0,0,1-21.27,5.93l3.33-.45a67.3,67.3,0,0,1-17.25,0l3.32.45a61.08,61.08,0,0,1-15.43-4.16l3,1.26a53.19,53.19,0,0,1-11.15-6.46l2.53,2a49.35,49.35,0,0,1-8.68-8.65l2,2.53a50.18,50.18,0,0,1-6.28-10.85l1.26,3a61.45,61.45,0,0,1-4-15.37l.45,3.32a96.3,96.3,0,0,1,.37-24.81l-.45,3.32a180.39,180.39,0,0,1,12.8-45.4l-1.26,3a182.71,182.71,0,0,1,23.24-40l-2,2.52a156.28,156.28,0,0,1,27.84-28l-2.53,2a133.19,133.19,0,0,1,29.28-17.11l-3,1.26a128.41,128.41,0,0,1,31.9-8.71l-3.32.45a124,124,0,0,1,32.72,0l-3.33-.45a123,123,0,0,1,26.5,6.72c2.88,1.09,7.08.24,9.63-1.26a12.49,12.49,0,0,0,4.49-17.1,14.18,14.18,0,0,0-7.47-5.74Z"/><path class="cls-2" d="M560,407a201.63,201.63,0,0,0-60.66,3.62c-20.58,4.24-40.51,11.95-59.1,21.68a250.1,250.1,0,0,0-29.67,18.35,19.22,19.22,0,0,0-9.51,19.86,14.9,14.9,0,0,0,2.36,7.41c2.75,4.25,6.83,8,11.91,9.15s11.06,1.08,15.36-2a240.41,240.41,0,0,1,46.43-26.27l-4.76,2a199.57,199.57,0,0,1,50.5-13.95l-5.3.71a183.13,183.13,0,0,1,42.44-.7A20.46,20.46,0,0,0,580,426.88c-.23-5.15-1.92-10.5-5.83-14.09l-4-3.12A19.88,19.88,0,0,0,560,407Z"/><path class="cls-2" d="M812.64,422.13l50.3-2.2,50.31-2.21,28.4-1.24a18.72,18.72,0,0,0,12.58-5.22,13.2,13.2,0,0,0,3.68-5.73,13.35,13.35,0,0,0,1.54-6.85c-.21-4.61-1.72-9.38-5.22-12.59s-7.84-5.42-12.58-5.21l-50.31,2.2L841,385.29l-28.39,1.24a18.72,18.72,0,0,0-12.59,5.22,19.79,19.79,0,0,0-5.21,12.58c.2,4.61,1.71,9.38,5.21,12.59s7.84,5.42,12.59,5.21Z"/></g></svg>