<svg id="Layer_1" data-name="Layer 1" xmlns="http://www.w3.org/2000/svg" viewBox="0 0 1417.32 1417.32"><defs><style>.cls-1{fill:#231f20;}</style></defs><title>Artboard 1</title><path class="cls-1" d="M515.45,955.51q-3.94.84-7.93,1.49-.94.16-1.89.3l-.75.11c-1,.14-1,.15,0,0l.76-.1-1.52.19c-.75.1-1.51.18-2.27.27q-7.9.86-15.88.94t-15.83-.56c-2.63-.22-5.25-.51-7.87-.82-1.69-.2,2.95.43.4,0l-1.86-.27c-1.37-.21-2.73-.44-4.1-.68A191.86,191.86,0,0,1,426,948.31c-2.52-.89-5-1.84-7.49-2.83l-1.78-.71c-.2-.08-2.53-1.08-.76-.31l-.75-.33-2.11-.93q-7.36-3.3-14.47-7.15a230.38,230.38,0,0,1-27.44-17.49,37.42,37.42,0,0,1-3.12-2.35c2.25,2,.33.25-.16-.14s-1-.8-1.53-1.21q-3.21-2.57-6.32-5.24-6.26-5.36-12.12-11.12A205.94,205.94,0,0,1,326,873.9c1.88,2.56-.58-.79-1.08-1.45-.86-1.16-1.7-2.32-2.54-3.48q-2.4-3.35-4.68-6.77-4.55-6.84-8.62-14c-2.86-5-5.51-10.15-8-15.35q-2-4.25-3.92-8.55c-.3-.68-.59-1.36-.89-2.05-1.16-2.67.61,1.52-.07-.17-.62-1.51-1.25-3-1.85-4.55A300,300,0,0,1,282.85,782a351.69,351.69,0,0,1-7.25-36.79c-.44-3,.31,2.49-.07-.54-.08-.59-.15-1.18-.23-1.78-.2-1.63-.39-3.26-.58-4.89-.34-3.13-.65-6.26-.91-9.39q-.81-9.42-1.14-18.88c-.46-12.66-.32-25.34.35-38q.51-9.53,1.42-19,.45-4.76,1-9.5c.17-1.5.35-3,.54-4.51.09-.75.19-1.5.28-2.26.15-1.15.32-2.57.07-.58A486.13,486.13,0,0,1,292.06,561c1.8-6.23,3.75-12.43,5.91-18.55q1.62-4.58,3.39-9.1c.57-1.43,1.16-2.86,1.74-4.28.7-1.72-1.1,2.47.11-.26.38-.85.74-1.69,1.12-2.53a175.77,175.77,0,0,1,19-33.06c.5-.67,2.19-2.05.21-.31a10,10,0,0,0,1-1.28q1.41-1.77,2.86-3.48c1.87-2.18,3.79-4.31,5.79-6.37,3.83-3.95,8.05-8.55,12.73-11.5-2.56,1.62.92-.67,1.61-1.16,1.2-.87,2.43-1.72,3.67-2.54,2.35-1.56,4.77-3,7.24-4.41s5-2.64,7.54-3.8c.61-.27,1.21-.59,1.84-.81-2.62.91-.78.34-.12.08,1.37-.54,2.75-1.05,4.14-1.52,2.65-.91,5.35-1.69,8.08-2.34,1.3-.31,2.61-.6,3.92-.85.81-.15,5.59-.87,2.15-.42,3.14-.41,5.69-1,8-3.32a11.55,11.55,0,0,0,3.32-8c-.25-5.48-5-12.19-11.35-11.35a108.83,108.83,0,0,0-37.59,12A128.45,128.45,0,0,0,318.87,464c-19.21,19.1-32.06,43.32-41.37,68.52-9.13,24.72-15.22,50.72-19.82,76.64a496.24,496.24,0,0,0-7.94,80.21c-.69,53.21,8.67,106.76,31.77,155a252.77,252.77,0,0,0,92.31,103.5c38.08,24.1,84.33,37.8,129.54,32.48,6.08-.72,12.13-1.64,18.12-2.91,5.82-1.23,9.74-8.37,7.93-14a11.62,11.62,0,0,0-14-7.92Z"/><path class="cls-1" d="M393.29,444.78l15.57-82.41L424.42,280l8.71-46.11-20.74,2.71,36.08,62.71,35.95,62.5L504.7,397a11.35,11.35,0,0,0,15.52,4.07,11.56,11.56,0,0,0,4.07-15.53l-36.07-62.71-36-62.5L432,225.11a11.37,11.37,0,0,0-11.31-5.41,10.72,10.72,0,0,0-5.37,2.23,10.59,10.59,0,0,0-4.06,5.9l-15.57,82.4-15.56,82.41-8.71,46.11a12.14,12.14,0,0,0,1.14,8.74,11.34,11.34,0,0,0,15.53,4.07c2.36-1.52,4.67-3.9,5.21-6.78Z"/><path class="cls-1" d="M515.17,401.28Q555,390.11,595.8,382.66q10.13-1.86,20.3-3.46,5.08-.81,10.18-1.56l5.09-.73,2.35-.33,1.18-.16c.34-.05,2.18-.3.45-.07s1.27-.16,1.64-.21l2.35-.31,5.11-.64q5.1-.62,10.22-1.19,10.43-1.15,20.88-2.07,41-3.58,82.24-3.41t82.6,4.17q10.25,1,20.47,2.22c3.4.41,6.81.84,10.21,1.29l.45.06c-1.63-.22-.25,0,.06,0l2.36.32,5.49.78q20.37,3,40.6,6.87,5.06,1,10.1,2c5.8,1.19,12.53-1.68,14-7.93,1.29-5.66-1.71-12.68-7.93-14q-41.83-8.57-84.35-13.18-41.5-4.57-83.33-5.24-41.57-.68-83.06,2.49-42.57,3.24-84.73,10.42-41.21,7-81.62,17.82-5,1.33-9.94,2.72c-5.71,1.61-9.82,8.11-7.92,14s7.83,9.65,14,7.93Z"/><path class="cls-1" d="M935.92,372.78l15.53-48.65L967,275.49l4.39-13.76c1.2-3.74,2.31-7.52,3.83-11.14l-1.14,2.71a45.32,45.32,0,0,1,5.64-10l-1.77,2.3a24.81,24.81,0,0,1,4-4.11l-2.3,1.78a16.19,16.19,0,0,1,3.32-2l-2.71,1.14a13.5,13.5,0,0,1,3.06-.85l-3,.41a12.46,12.46,0,0,1,3,0l-3-.4a13.74,13.74,0,0,1,3.16.82l-2.71-1.14a14.23,14.23,0,0,1,3.08,1.81l-2.29-1.78a19.33,19.33,0,0,1,3.23,3.35l-1.77-2.3a39.46,39.46,0,0,1,4.57,8.33L986.42,248c2.91,6.93,5.43,14,8.13,21.06l8.37,21.85q8.48,22.08,16.94,44.16l9.63,25.1c1.09,2.84,2.5,5.2,5.21,6.79a11.36,11.36,0,0,0,15.53-4.07c1.34-2.55,2.22-5.94,1.14-8.75L1028.2,293.7l-11.5-30-5.8-15.1a115.13,115.13,0,0,0-5.88-13.87,32.66,32.66,0,0,0-10.67-11.9c-5.23-3.44-11.6-4.14-17.63-3-4.8.9-9.41,4-12.79,7.43a44.34,44.34,0,0,0-7.83,11.07c-4.57,9-7.11,18.95-10.16,28.52l-9.85,30.84-19.63,61.46L914,366.74c-1.81,5.66,2.11,12.64,7.92,14a11.6,11.6,0,0,0,14-7.92Z"/><path class="cls-1" d="M1040.83,377.1c.66.49,1.32,1,2,1.48.43.33,2.73,1.95.31.23,1.34,1,2.6,2,3.87,3.07q3.82,3.11,7.55,6.33,7.42,6.45,14.38,13.42,6.66,6.66,12.87,13.75,3.1,3.56,6.09,7.19c1,1.16,1.9,2.33,2.83,3.5.52.64,1,1.29,1.53,1.93l-.27-.35c.33.43.67.86,1,1.3a316.6,316.6,0,0,1,38.74,66.7c.22.51,1.42,3.07.15.33.34.74.63,1.53,1,2.29.52,1.27,1,2.55,1.54,3.83q2,5,3.79,10.07,3.22,9,5.93,18.1a345,345,0,0,1,8.94,38q.86,4.9,1.58,9.84c.13.82.24,1.64.36,2.46.29,2.08,0-.23-.07-.54.33,1.9.49,3.85.71,5.77q1.13,9.9,1.69,19.86a333.84,333.84,0,0,1-.1,39q-.57,9.51-1.71,19c-.1.82-.21,1.64-.31,2.47-.35,2.85.37-2.58,0,.27q-.34,2.46-.72,4.92c-.51,3.27-1.06,6.54-1.67,9.8a305.78,305.78,0,0,1-9.53,37.72q-3.06,9.53-6.76,18.82c-.54,1.34-1.08,2.67-1.63,4-1.11,2.72,1-2.24-.19.46l-1,2.37q-2.07,4.73-4.29,9.38a319,319,0,0,1-19.85,35.47q-5.45,8.43-11.41,16.52-1.52,2.06-3.07,4.1c-.3.39-2,2.74-.31.41-.33.46-.7.9-1.05,1.35q-3.42,4.37-7,8.61a343.51,343.51,0,0,1-27.56,29.16q-7.14,6.74-14.67,13.07-3.93,3.3-7.94,6.49c-1.11.89-2.22,1.8-3.36,2.64,2.33-1.7,0,0-.42.31l-2.73,2a361.77,361.77,0,0,1-69.25,40.44c-1.56.69-3.12,1.42-4.7,2,2.75-1.07,0,0-.44.18l-2.37,1q-4.75,1.92-9.55,3.72-9.39,3.49-19,6.46a342.45,342.45,0,0,1-39.27,9.67q-4.6.84-9.23,1.56c-1.69.26-3.37.5-5.06.74-2.79.41,1.86-.22.07,0l-3,.37q-10.14,1.23-20.34,1.82-9.78.56-19.58.53c-5.94,0-11.62,5.23-11.35,11.34s5,11.33,11.35,11.35c56.39.14,112.27-14.3,162.35-40a365.05,365.05,0,0,0,127.51-108.63,323.4,323.4,0,0,0,60-153c6.44-53.59-.39-109.16-19-159.8s-48.76-97.43-89.83-132.71c-5.52-4.74-11.24-9.24-17.06-13.59-4.77-3.57-12.88-.93-15.52,4.07-3.15,5.95-1,11.72,4.07,15.53Z"/><path class="cls-1" d="M517.21,973.22l4.56-.62-3,.41q64.25-8.62,129.08-11.44,64.41-2.79,128.91.22,36.15,1.68,72.19,5.19c2.73.27,6.16-1.45,8-3.32a11.33,11.33,0,0,0,0-16,12.93,12.93,0,0,0-8-3.32q-65.49-6.37-131.38-6.74-65.46-.34-130.78,5.27c-25.28,2.17-50.47,5.07-75.6,8.52-2.61.36-5.53,3.07-6.78,5.22a11.33,11.33,0,0,0,4.07,15.52l2.71,1.14a11.43,11.43,0,0,0,6,0Z"/><path class="cls-1" d="M547.37,566q-29.76,10.53-58.43,23.87-27.42,12.75-53.56,28.07c-7.85,4.6-15.61,9.66-22.14,16.06s-12.3,14.73-13.72,23.9a38.06,38.06,0,0,0,.59,16.21,34.36,34.36,0,0,0,5.48,11.36,48.6,48.6,0,0,0,4.89,5.82,58.52,58.52,0,0,0,6.09,5,51.3,51.3,0,0,0,9.36,5.48,85,85,0,0,0,23.83,7,164.9,164.9,0,0,0,27.1,1.76,169,169,0,0,0,50.93-9.21,171.77,171.77,0,0,0,45.76-23.86,173.51,173.51,0,0,0,20.74-17.83,134.5,134.5,0,0,0,17.79-22c5.57-8.85,9.7-19.77,8.48-30.38a43.63,43.63,0,0,0-4.76-15.86,46.09,46.09,0,0,0-8.47-11.16,56.22,56.22,0,0,0-24.78-14c-10.73-2.82-22-2.89-32.95-1.72-5.88.62-11.74,1.5-17.6,2.38-2.62.4-5.5,3-6.78,5.22a11.35,11.35,0,0,0,4.07,15.52l2.71,1.15a11.46,11.46,0,0,0,6,0c3-.45,5.94-.9,8.91-1.3l-3,.41c9.35-1.24,18.83-2,28.23-.81l-3-.4a53.47,53.47,0,0,1,13.34,3.45L579.78,589a46.12,46.12,0,0,1,10,5.79L587.48,593a41.23,41.23,0,0,1,7.35,7.29l-1.77-2.3a34.46,34.46,0,0,1,4.27,7.24l-1.15-2.71a29.32,29.32,0,0,1,2,7.41l-.4-3a30,30,0,0,1,0,7.51l.4-3a38.24,38.24,0,0,1-2.69,9.62l1.14-2.71a69.3,69.3,0,0,1-9.1,14.86l1.78-2.3a152.71,152.71,0,0,1-27,26.8l2.3-1.77a162.51,162.51,0,0,1-35.91,20.92l2.71-1.14a161.85,161.85,0,0,1-41.09,11.22l3-.4a152,152,0,0,1-39.87.07l3,.4a79.18,79.18,0,0,1-20.3-5.28l2.71,1.14a53.1,53.1,0,0,1-11.32-6.46l2.3,1.77a35.78,35.78,0,0,1-6.33-6.21l1.77,2.3a28.06,28.06,0,0,1-3.45-5.83l1.15,2.71a24.83,24.83,0,0,1-1.73-6.34l.4,3a26.26,26.26,0,0,1,0-6.57l-.41,3a27.23,27.23,0,0,1,1.83-6.62L422,660.34a35.38,35.38,0,0,1,4.44-7.49l-1.78,2.3a59.34,59.34,0,0,1,10.81-10.49l-2.3,1.77a133.1,133.1,0,0,1,13.84-9q8.63-5.07,17.42-9.85,17.58-9.56,35.73-18,10.32-4.8,20.82-9.24l-2.71,1.15q17.36-7.32,35.1-13.6a12.06,12.06,0,0,0,6.78-5.21,11.61,11.61,0,0,0,1.15-8.74,11.49,11.49,0,0,0-5.22-6.79c-2.59-1.37-5.88-2.15-8.74-1.14Z"/><path class="cls-1" d="M922,550a168.34,168.34,0,0,0-64.9.76A163.66,163.66,0,0,0,800,574.5c-8.87,5.9-17.56,12.6-24.47,20.76-7.32,8.65-13.32,18.82-15.17,30.15a62.15,62.15,0,0,0-1,9.72,55.93,55.93,0,0,0,.93,9.65,40.26,40.26,0,0,0,6,15.3,48.4,48.4,0,0,0,12.58,12.82,61.39,61.39,0,0,0,14.1,7.11c9,3.46,18.73,5,28.24,6.61q18.59,3.07,37.37,4.92a517.23,517.23,0,0,0,70.41,2c12-.48,24.09-1.25,36-2.9,10.38-1.43,21.08-4.25,29.79-10.3a55.65,55.65,0,0,0,7-5.63,53.65,53.65,0,0,0,5.34-6.31,49.13,49.13,0,0,0,6.5-12.38,57.31,57.31,0,0,0,3-13.76,56.26,56.26,0,0,0,.15-11.89,78.62,78.62,0,0,0-8-28.12,73.89,73.89,0,0,0-17.24-22c-15.77-14-35.25-22.32-55-29.1-4.41-1.52-8.84-3-13.28-4.39-5.66-1.82-12.64,2.13-14,7.93a11.6,11.6,0,0,0,7.92,14c10.3,3.31,20.59,6.7,30.57,10.9l-2.71-1.14a127,127,0,0,1,28.18,15.9l-2.3-1.77a78.26,78.26,0,0,1,13.86,13.6l-1.78-2.3a62.25,62.25,0,0,1,7.83,13.52l-1.15-2.71a65.3,65.3,0,0,1,4.44,16.11l-.41-3a57,57,0,0,1,.09,15l.41-3a46.25,46.25,0,0,1-3.1,11.57l1.15-2.71a39.41,39.41,0,0,1-5,8.61l1.77-2.29a37.62,37.62,0,0,1-6.44,6.42l2.3-1.78a44.47,44.47,0,0,1-9.76,5.61l2.71-1.14a76.52,76.52,0,0,1-19,4.75l3-.4c-7.47,1-15,1.51-22.53,2q-12.18.74-24.38.89-24.15.3-48.25-1.65-13.62-1.11-27.17-2.93l3,.41c-8.67-1.18-17.31-2.53-25.9-4.17a101.52,101.52,0,0,1-19.67-5.51l2.71,1.14a48,48,0,0,1-10.65-6.07l2.3,1.77a35,35,0,0,1-6.08-6.08l1.78,2.3a32.62,32.62,0,0,1-3.87-6.6l1.15,2.71a35.64,35.64,0,0,1-2.45-9l.41,3a42.12,42.12,0,0,1,0-11l-.41,3a47.17,47.17,0,0,1,3.11-11.44L784,623.89a57,57,0,0,1,7.4-12.51l-1.78,2.3a89.08,89.08,0,0,1,16-15.6l-2.3,1.77a152.18,152.18,0,0,1,33.27-19.3l-2.71,1.15a158.25,158.25,0,0,1,40.29-11l-3,.41a154.45,154.45,0,0,1,40.47-.06l-3-.4q3.69.5,7.37,1.17a12.24,12.24,0,0,0,8.74-1.14,11.36,11.36,0,0,0,4.07-15.53c-1.52-2.36-3.91-4.68-6.78-5.21Z"/><path class="cls-1" d="M513.58,634.79l-7.82,8.66a11.71,11.71,0,0,0-3.32,8c.13,2.89,1.07,6,3.32,8a23.94,23.94,0,0,0,5.55,3.87,27,27,0,0,0,9.47,2.55,22.82,22.82,0,0,0,13.17-3c8.84-5,12.66-15.71,10.47-25.38-2.15-9.48-11.33-16.11-20.91-16a21.68,21.68,0,0,0-14,5.44c-4,3.45-5.75,8.44-6.25,13.54-.77,7.79,4,16.89,11.12,20.28,4.74,2.24,10.18,3,15.2,1.11a22.32,22.32,0,0,0,12.05-10.09c3.12-5.93,4.32-14.63-.89-19.84-1.76-1.76-4.33-3-6.51-4.25a52.63,52.63,0,0,0-4.76-2.36c-4.8-2.09-9.67-3.71-15-3.65a27.73,27.73,0,0,0-13,3.46,22.76,22.76,0,0,0-10.56,12.32c-2.06,5.16-1.25,11,1.3,15.79a21.39,21.39,0,0,0,11.95,9.73,17.64,17.64,0,0,0,9.23.37,16.85,16.85,0,0,0,7.92-4.33,11.35,11.35,0,0,0-8-19.37,12.4,12.4,0,0,0-8,3.32,5.32,5.32,0,0,1-.45.38l2.3-1.78a6.22,6.22,0,0,1-1.2.69l2.71-1.14a6.91,6.91,0,0,1-1.28.35l3-.41a6.51,6.51,0,0,1-1.59,0l3,.41a9.14,9.14,0,0,1-2.12-.59l2.71,1.14a10.16,10.16,0,0,1-2-1.18l2.29,1.78a11.09,11.09,0,0,1-1.86-1.89l1.77,2.3a10,10,0,0,1-1.16-2l1.14,2.71a8.28,8.28,0,0,1-.51-2l.4,3a8,8,0,0,1,0-1.76l-.41,3a10.92,10.92,0,0,1,.72-2.51l-1.15,2.71a11.71,11.71,0,0,1,1.33-2.2l-1.78,2.29a13.9,13.9,0,0,1,2.07-2.06L511,646.11a15.9,15.9,0,0,1,3.46-2l-2.71,1.14a17.51,17.51,0,0,1,3.91-1l-3,.41a17.59,17.59,0,0,1,4.41,0l-3-.41a27.78,27.78,0,0,1,6.68,1.93L518,645a73.89,73.89,0,0,1,9,4.84l-5.21-6.78q.07.33.12.66l-.4-3a8.85,8.85,0,0,1,0,2.3l.41-3a10.72,10.72,0,0,1-.6,2.22l1.14-2.71a11.87,11.87,0,0,1-1.51,2.57l1.77-2.3a12.38,12.38,0,0,1-1.89,1.87l2.29-1.77a11.74,11.74,0,0,1-2.27,1.33l2.71-1.14a9.67,9.67,0,0,1-2.18.61l3-.4a9.08,9.08,0,0,1-2.27,0l3,.4a8.69,8.69,0,0,1-1.75-.47l2.71,1.14a9.44,9.44,0,0,1-1.94-1.13l2.3,1.78a10.46,10.46,0,0,1-1.59-1.6l1.77,2.29a11.8,11.8,0,0,1-1.44-2.48l1.14,2.71a12.24,12.24,0,0,1-.75-2.79l.4,3a11,11,0,0,1,0-2.87l-.41,3a9.67,9.67,0,0,1,.61-2.18L525,643.85a9.65,9.65,0,0,1,1-1.73l-1.78,2.3a10.06,10.06,0,0,1,1.53-1.53l-2.3,1.78a10.53,10.53,0,0,1,1.86-1.09l-2.71,1.14a10.75,10.75,0,0,1,2.68-.73l-3,.4a12.49,12.49,0,0,1,2.8,0l-3-.4a12.25,12.25,0,0,1,2.72.71l-2.71-1.14a11.21,11.21,0,0,1,2.16,1.22L521.94,643a10.34,10.34,0,0,1,1.78,1.78l-1.78-2.3a11.35,11.35,0,0,1,1.14,2l-1.15-2.71a12,12,0,0,1,.78,2.81l-.41-3a12.78,12.78,0,0,1,0,3.27l.41-3a13.58,13.58,0,0,1-.88,3.17l1.15-2.71a12.64,12.64,0,0,1-1.49,2.53l1.77-2.29a11.35,11.35,0,0,1-1.88,1.85l2.3-1.78a11.94,11.94,0,0,1-2.43,1.39l2.71-1.14a13.65,13.65,0,0,1-3,.79l3-.4a14.72,14.72,0,0,1-3.51,0l3,.41a14.67,14.67,0,0,1-3.38-1l2.71,1.14a13.51,13.51,0,0,1-2.44-1.42l2.3,1.78c-.28-.22-.55-.44-.82-.68v16l7.82-8.66a12,12,0,0,0,3.32-8,11.34,11.34,0,0,0-11.35-11.35,11.42,11.42,0,0,0-8,3.32Z"/><path class="cls-1" d="M874.81,605.33l-13.45.12a11.57,11.57,0,0,0-8,3.33c-1.91,2.08-3.64,5.09-3.32,8,.36,3.37.94,6.41,2.81,9.34a23.17,23.17,0,0,0,6.58,6.69,9.62,9.62,0,0,0,1.67,1,25.75,25.75,0,0,0,4.53,1.8,21.72,21.72,0,0,0,9.82.18,15.17,15.17,0,0,0,6.15-2.66,21.65,21.65,0,0,0,6.36-6.7,19.35,19.35,0,0,0,2.47-6.44,31.93,31.93,0,0,0,.55-4.69,27.85,27.85,0,0,0-.55-4.9,9.38,9.38,0,0,0-.48-1.8,22.18,22.18,0,0,0-2-4.47,21.2,21.2,0,0,0-6.8-6.69,25.89,25.89,0,0,0-4.27-1.91,11.23,11.23,0,0,0-2.12-.56,21.53,21.53,0,0,0-9.88.07,11.86,11.86,0,0,0-2,.59,23.92,23.92,0,0,0-4.45,2.07,21.7,21.7,0,0,0-6.62,6.63,16.68,16.68,0,0,0-2.39,6,26.49,26.49,0,0,0-.54,4.63,29.51,29.51,0,0,0,.54,4.75,22.93,22.93,0,0,0,2.4,6.52,21.94,21.94,0,0,0,4.14,5.52c3.89,3.8,9.52,6.48,15.07,6a8.53,8.53,0,0,0,4.37-1,8.43,8.43,0,0,0,3.65-2.35,11.55,11.55,0,0,0,3.33-8,11.43,11.43,0,0,0-3.33-8c-2.11-1.95-5-3.56-8-3.33a8.44,8.44,0,0,1-1.74,0l3,.41a9.26,9.26,0,0,1-2.18-.59l2.71,1.15a10.87,10.87,0,0,1-2.11-1.23l2.29,1.77a12.16,12.16,0,0,1-2.17-2.19l1.77,2.3a13.88,13.88,0,0,1-1.66-2.9l1.14,2.71a13,13,0,0,1-.82-3l.4,3a11.48,11.48,0,0,1,0-2.87l-.4,3a9.88,9.88,0,0,1,.65-2.38L870.71,617a8.87,8.87,0,0,1,1.09-1.82L870,617.44a10.33,10.33,0,0,1,1.56-1.54l-2.3,1.78a10.59,10.59,0,0,1,2.08-1.22l-2.71,1.14a12,12,0,0,1,2.76-.77l-3,.41a11.76,11.76,0,0,1,3.08,0l-3-.41a11.36,11.36,0,0,1,2.54.68l-2.71-1.15a10.14,10.14,0,0,1,2.25,1.32l-2.29-1.78a9.75,9.75,0,0,1,1.4,1.4l-1.78-2.3a9.31,9.31,0,0,1,1.17,2l-1.15-2.72a10.4,10.4,0,0,1,.7,2.61l-.41-3a11.25,11.25,0,0,1,0,2.72l.41-3a12,12,0,0,1-.75,2.84l1.15-2.71a11.53,11.53,0,0,1-1.34,2.34l1.77-2.3a9.57,9.57,0,0,1-1.59,1.59l2.3-1.77a8.51,8.51,0,0,1-1.8,1l2.71-1.14A8.69,8.69,0,0,1,869,614l3-.41a9.09,9.09,0,0,1-2.33,0l3,.41a10.62,10.62,0,0,1-2.48-.69l2.71,1.14a10.76,10.76,0,0,1-2.4-1.42l2.29,1.78a10.49,10.49,0,0,1-1.66-1.67l1.77,2.3a9.46,9.46,0,0,1-1.18-2l1.14,2.71a8.87,8.87,0,0,1-.55-2.08l.4,3,0-.22-11.35,11.35,13.45-.12a11.77,11.77,0,0,0,8-3.33,11.35,11.35,0,0,0,0-16,11.75,11.75,0,0,0-8-3.33Z"/><path class="cls-1" d="M554.48,502.33A211.82,211.82,0,0,0,502,505.86a214.18,214.18,0,0,0-50.18,16.35A199.31,199.31,0,0,0,427,535.92a12,12,0,0,0-5.22,6.78,11.56,11.56,0,0,0,1.15,8.74,11.35,11.35,0,0,0,15.52,4.07,201.16,201.16,0,0,1,31-16.42l-2.71,1.14a204.87,204.87,0,0,1,52-14.22l-3,.41a200.43,200.43,0,0,1,38.79-1.4,11.35,11.35,0,0,0,8-19.37,12.43,12.43,0,0,0-8-3.32Z"/><path class="cls-1" d="M767.22,481.52q30.79,1.59,61.54,3.88t61.43,5.28q17.32,1.68,34.63,3.59c2.7.3,6.18-1.48,8-3.32a11.33,11.33,0,0,0,0-16.05l-2.29-1.77a11.2,11.2,0,0,0-5.73-1.55q-30.65-3.37-61.37-6.07T802,460.84q-17.37-1.11-34.75-2a11.35,11.35,0,0,0,0,22.7Z"/><path class="cls-1" d="M657.07,688.53l0,.4-.35-2.58a74.45,74.45,0,0,1,0,19.33l.34-2.58a78.63,78.63,0,0,1-5.48,20l1-2.32a82,82,0,0,1-10.5,17.87l1.52-2A87.63,87.63,0,0,1,628.12,752l2-1.51a100.68,100.68,0,0,1-21.87,12.73l2.32-1a104.59,104.59,0,0,1-24.95,7c-2.24.34-4.71,2.6-5.8,4.47a9.88,9.88,0,0,0-1,7.48,9.77,9.77,0,0,0,4.46,5.8l2.32,1a9.62,9.62,0,0,0,5.16,0,110.84,110.84,0,0,0,52-23,90.74,90.74,0,0,0,31.14-47.23,88.86,88.86,0,0,0,2.75-17.15,86.12,86.12,0,0,0-.87-17.28c-.31-2.23-2.63-4.73-4.47-5.81a9.93,9.93,0,0,0-7.48-1,9.79,9.79,0,0,0-5.8,4.47l-1,2.32a9.62,9.62,0,0,0,0,5.16Z"/><path class="cls-1" d="M665,681.05a160.28,160.28,0,0,0-4.44,18.73,67.46,67.46,0,0,0-.16,22.1,43.92,43.92,0,0,0,18.07,28.25,40.11,40.11,0,0,0,16.81,6.46,76.25,76.25,0,0,0,19.21.44A127.88,127.88,0,0,0,733,753.84a122,122,0,0,0,17.44-6.07,107.93,107.93,0,0,0,31.42-20.41c3.72-3.48,3.77-10.27,0-13.74a9.94,9.94,0,0,0-13.74,0q-3.2,3-6.66,5.68l2-1.52A103.48,103.48,0,0,1,740.61,731l2.32-1a110.44,110.44,0,0,1-27.65,7.53l2.59-.35a74.56,74.56,0,0,1-19.11.43l2.59.35a39.53,39.53,0,0,1-10-2.62l2.32,1a31.27,31.27,0,0,1-6.58-3.86l2,1.52a32,32,0,0,1-5.6-5.67l1.52,2a36.15,36.15,0,0,1-4.45-7.75l1,2.32a39.39,39.39,0,0,1-2.58-9.54l.34,2.58a54.72,54.72,0,0,1,.21-14.35l-.35,2.58a153.09,153.09,0,0,1,4.61-19.93c1.37-4.89-1.69-10.79-6.79-12A9.89,9.89,0,0,0,665,681.05Z"/><path class="cls-1" d="M627.18,784.7a61.92,61.92,0,0,0,36.62,8.15,68.19,68.19,0,0,0,18.82-4.14,70.25,70.25,0,0,0,17.7-9.85,61.3,61.3,0,0,0,15-16.6,11.72,11.72,0,0,0,1.15-8.75,11.35,11.35,0,0,0-20.74-2.71,52.91,52.91,0,0,1-3,4.38l1.77-2.3a51.68,51.68,0,0,1-9.05,9l2.3-1.78a56.75,56.75,0,0,1-12.47,7.26l2.71-1.14a59.19,59.19,0,0,1-14.89,4l3-.41a56.59,56.59,0,0,1-14.71,0l3,.4a51.43,51.43,0,0,1-12.89-3.52l2.71,1.14a48.61,48.61,0,0,1-5.58-2.82,11.7,11.7,0,0,0-8.74-1.15,11.35,11.35,0,0,0-2.71,20.74Z"/><path class="cls-1" d="M184.63,1060.49c-2.8,9.53-5.63,19.08-9.48,28.25l1.15-2.71a87.3,87.3,0,0,1-10.78,19.17l1.77-2.3a55.66,55.66,0,0,1-9.81,9.89l2.3-1.77a42.82,42.82,0,0,1-9.08,5.37l2.71-1.14a32.86,32.86,0,0,1-8.31,2.29l3-.4a29,29,0,0,1-7.09,0l3,.4a28.33,28.33,0,0,1-7-2l2.71,1.14a33.13,33.13,0,0,1-6.94-4.13l2.3,1.77a42.54,42.54,0,0,1-7.43-7.56l1.77,2.29a57.12,57.12,0,0,1-7.11-12.4l1.14,2.72a67.15,67.15,0,0,1-4.51-16.57l.41,3a92.17,92.17,0,0,1,.29-24.1l-.4,3c2.45-17.85,8.7-35,15.11-51.8q2.5-6.59,5.24-13.08l-1.14,2.72c7-16.58,15.3-32.78,26.33-47.09l-1.78,2.3a117.07,117.07,0,0,1,20.62-20.93l-2.29,1.77A98.08,98.08,0,0,1,203,926.05l-2.72,1.14a103.28,103.28,0,0,1,25.77-7l-3,.41a118.92,118.92,0,0,1,31.48.1l-3-.41A140.82,140.82,0,0,1,287,930.15L284.3,929a154.52,154.52,0,0,1,34,19.93l-2.3-1.77a133.19,133.19,0,0,1,23.75,23.52l-1.77-2.3a111.42,111.42,0,0,1,14.51,24.73l-1.14-2.71a96.75,96.75,0,0,1,6.64,24.37l-.41-3a98.84,98.84,0,0,1,0,25.66l.41-3a84.3,84.3,0,0,1-5.65,21.27l1.14-2.71a65.69,65.69,0,0,1-8.25,14.33l1.77-2.3a50.16,50.16,0,0,1-8.87,9l2.3-1.77a42.55,42.55,0,0,1-9.16,5.33l2.71-1.15a44.21,44.21,0,0,1-10.88,3l3-.41a45.46,45.46,0,0,1-11.77,0l3,.4a44.71,44.71,0,0,1-11.06-3l2.71,1.14a42.28,42.28,0,0,1-9.44-5.5l2.29,1.77a41.26,41.26,0,0,1-7.05-7l1.78,2.3a42.5,42.5,0,0,1-5.3-9l1.15,2.71c-.31-.72-.59-1.44-.86-2.17l-21.88,6a48.08,48.08,0,0,1,3,11.53l-.41-3a54.69,54.69,0,0,1-.06,14.29l.41-3a61.85,61.85,0,0,1-4.21,15.39l1.14-2.71a58.09,58.09,0,0,1-7.3,12.61l1.77-2.3a47.53,47.53,0,0,1-8.24,8.35l2.3-1.77a38.67,38.67,0,0,1-8.14,4.83l2.71-1.15a32,32,0,0,1-8.13,2.24l3-.4a31.17,31.17,0,0,1-7.84,0l3,.41a34.77,34.77,0,0,1-8.5-2.32l2.71,1.14a41.38,41.38,0,0,1-9.22-5.45l2.3,1.78a50.94,50.94,0,0,1-8.84-9l1.77,2.3a57.84,57.84,0,0,1-7.29-12.52l1.15,2.71a56.26,56.26,0,0,1-3.9-14.23l.4,3a50.68,50.68,0,0,1,0-13.08l-.41,3c.19-1.34.42-2.67.71-4a12.06,12.06,0,0,0-1.14-8.75A11.36,11.36,0,0,0,197,1062.5a11.41,11.41,0,0,0-5.21,6.79,65.23,65.23,0,0,0,6.5,44.57,63.86,63.86,0,0,0,12.44,16.4A55.65,55.65,0,0,0,229.65,1142c12.54,4.66,27.24,2.47,38.2-5.09,11.45-7.89,19.3-19.45,23.9-32.47a70.56,70.56,0,0,0,3.74-19.83,60.32,60.32,0,0,0-2.38-19.95c-.42-1.38-.91-2.73-1.45-4.07a12.68,12.68,0,0,0-5.21-6.78,11.36,11.36,0,0,0-15.53,4.07c-1.36,2.57-2.19,5.91-1.14,8.74a56.78,56.78,0,0,0,10,17.41,49.43,49.43,0,0,0,12.81,10.63,54.11,54.11,0,0,0,31.82,7.23,63.84,63.84,0,0,0,9.43-1.5,58.7,58.7,0,0,0,8.93-3.22,50.68,50.68,0,0,0,14.08-9.3c9.42-8.58,15.81-20.25,19.69-32.27a102.3,102.3,0,0,0,3.93-19.3,96.56,96.56,0,0,0,.48-17.75,114.4,114.4,0,0,0-3-20.16,112,112,0,0,0-7.15-19.75c-11-24-30.61-43.47-52.71-57.5s-47.81-22.74-74-24c-25.64-1.28-52.2,5.54-72.91,21A122.36,122.36,0,0,0,155.1,932.2,154.68,154.68,0,0,0,141.51,949a208.08,208.08,0,0,0-19.2,34.22c-6,13.28-11.3,26.93-16,40.72-5.17,15-9.32,30.52-10.15,46.47-.78,14.84,2,29.76,9.06,42.91,6.29,11.69,16.82,22.29,30,25.54a39.31,39.31,0,0,0,22.1-.93,55.82,55.82,0,0,0,19.91-12.27c11.3-10.58,18-25,23.08-39.41,2.3-6.5,4.26-13.12,6.2-19.74a11.72,11.72,0,0,0-1.14-8.75,11.35,11.35,0,0,0-20.74,2.71Z"/><path class="cls-1" d="M1067.82,1037.22c-2.8,9.53-5.63,19.08-9.48,28.25l1.15-2.71a87.3,87.3,0,0,1-10.78,19.17l1.77-2.3a55.94,55.94,0,0,1-9.8,9.89l2.29-1.77a43,43,0,0,1-9.08,5.38l2.71-1.15a32.88,32.88,0,0,1-8.31,2.3l3-.41a28.51,28.51,0,0,1-7.09,0l3,.4a28.09,28.09,0,0,1-7-2l2.71,1.14a33,33,0,0,1-6.95-4.13l2.3,1.78a42.93,42.93,0,0,1-7.43-7.57l1.77,2.3a57.6,57.6,0,0,1-7.11-12.4l1.14,2.71a67,67,0,0,1-4.51-16.57l.41,3a92.16,92.16,0,0,1,.29-24.1l-.4,3c2.45-17.85,8.7-35,15.11-51.8q2.52-6.59,5.25-13.07l-1.15,2.71c7-16.58,15.3-32.78,26.33-47.08l-1.78,2.29a116.79,116.79,0,0,1,20.63-20.93l-2.3,1.77a98.08,98.08,0,0,1,21.65-12.61l-2.71,1.14a103.52,103.52,0,0,1,25.76-7l-3,.41a119.27,119.27,0,0,1,31.47.1l-3-.4a140.8,140.8,0,0,1,35.55,9.81l-2.71-1.14a154.48,154.48,0,0,1,34,19.92l-2.3-1.77A133.19,133.19,0,0,1,1223,947.41l-1.77-2.3a111.42,111.42,0,0,1,14.51,24.73l-1.14-2.71a96.75,96.75,0,0,1,6.64,24.37l-.41-3a98.84,98.84,0,0,1,0,25.66l.4-3a84.18,84.18,0,0,1-5.65,21.27l1.15-2.71a65.9,65.9,0,0,1-8.26,14.33l1.78-2.3a50.55,50.55,0,0,1-8.88,9l2.3-1.77a42.15,42.15,0,0,1-9.16,5.33l2.71-1.15a43.66,43.66,0,0,1-10.88,3l3-.41a45.46,45.46,0,0,1-11.77,0l3,.4a44.71,44.71,0,0,1-11.06-3l2.71,1.14a42.28,42.28,0,0,1-9.44-5.5l2.29,1.78a41.68,41.68,0,0,1-7.05-7.06l1.78,2.3a42.5,42.5,0,0,1-5.3-9l1.15,2.71c-.3-.72-.59-1.44-.86-2.17l-21.88,6a47.84,47.84,0,0,1,3,11.53l-.41-3a54.77,54.77,0,0,1-.06,14.3l.41-3a61.85,61.85,0,0,1-4.21,15.39l1.14-2.71a58.09,58.09,0,0,1-7.3,12.61l1.77-2.3a46.86,46.86,0,0,1-8.24,8.35l2.3-1.77a38.67,38.67,0,0,1-8.14,4.83l2.71-1.15a32,32,0,0,1-8.13,2.24l3-.4a31.17,31.17,0,0,1-7.84,0l3,.41a34.33,34.33,0,0,1-8.5-2.32l2.71,1.14A41.73,41.73,0,0,1,1111,1092l2.3,1.77a50.94,50.94,0,0,1-8.84-9l1.77,2.3a58,58,0,0,1-7.29-12.52l1.15,2.71a56.26,56.26,0,0,1-3.9-14.23l.4,3a50.76,50.76,0,0,1,0-13.09l-.41,3c.19-1.34.42-2.67.71-4a12,12,0,0,0-1.14-8.74,11.34,11.34,0,0,0-15.53-4.07A11.36,11.36,0,0,0,1075,1046a65.18,65.18,0,0,0,6.51,44.57A63.25,63.25,0,0,0,1094,1107a55.36,55.36,0,0,0,18.87,11.73c12.54,4.66,27.24,2.47,38.2-5.08,11.45-7.89,19.3-19.46,23.9-32.48a70.2,70.2,0,0,0,3.74-19.83,60,60,0,0,0-2.38-19.94c-.42-1.38-.91-2.74-1.45-4.08a12.68,12.68,0,0,0-5.21-6.78,11.36,11.36,0,0,0-15.53,4.07c-1.36,2.57-2.19,5.91-1.14,8.75a57,57,0,0,0,10,17.41,49.63,49.63,0,0,0,12.81,10.63,54.2,54.2,0,0,0,31.82,7.22,63.84,63.84,0,0,0,9.43-1.5,57.64,57.64,0,0,0,8.93-3.22,50.68,50.68,0,0,0,14.08-9.3c9.42-8.58,15.81-20.25,19.69-32.27a102.2,102.2,0,0,0,3.93-19.29,96.7,96.7,0,0,0,.48-17.76,114.54,114.54,0,0,0-3-20.16,112.68,112.68,0,0,0-7.14-19.74c-11-24-30.61-43.48-52.72-57.5s-47.81-22.75-74-24c-25.64-1.28-52.19,5.55-72.91,21a122.36,122.36,0,0,0-16,14.11,156.62,156.62,0,0,0-13.59,16.82A208.49,208.49,0,0,0,1005.5,960c-6,13.28-11.29,26.93-16,40.72-5.17,15-9.32,30.52-10.15,46.47-.78,14.85,2,29.77,9.06,42.91,6.29,11.69,16.82,22.29,30,25.55a39.49,39.49,0,0,0,22.1-.93,56,56,0,0,0,19.91-12.27c11.3-10.58,18-25.06,23.08-39.41,2.3-6.51,4.26-13.13,6.2-19.75a11.34,11.34,0,0,0-7.92-14,11.57,11.57,0,0,0-14,7.92Z"/><path class="cls-1" d="M669.25,614.78a98.74,98.74,0,0,0-24,20.86A108.42,108.42,0,0,0,628,665a92.1,92.1,0,0,0-4.75,16.24,10.23,10.23,0,0,0,1,7.49c1.28,2,3.37,4.09,5.8,4.46,10.11,1.54,20.28,2.7,30.48,3.31a228.29,228.29,0,0,0,27.68.34,37.11,37.11,0,0,0,13.62-3.22,18.77,18.77,0,0,0,9.8-11.17c2.13-6.39-.24-12.76-2.92-18.54-2-4.38-4.09-8.74-6.13-13.11L688.64,621.1c-1-2.09-3.67-3.87-5.81-4.46a9.92,9.92,0,0,0-7.48,1,9.82,9.82,0,0,0-4.46,5.8,11,11,0,0,0,1,7.49l10.48,22.41c3.46,7.4,7.13,14.74,10.36,22.24l-1-2.32a21.21,21.21,0,0,1,1.46,4.79l-.35-2.59a11.66,11.66,0,0,1,0,2.64l.35-2.58a9.67,9.67,0,0,1-.57,2.19l1-2.32a9.55,9.55,0,0,1-1,1.81l1.52-2a10,10,0,0,1-1.66,1.66l2-1.52a14.21,14.21,0,0,1-2.91,1.66l2.32-1a24.21,24.21,0,0,1-5.67,1.44l2.58-.35a89.79,89.79,0,0,1-11.6.45q-6.88,0-13.78-.28-13.77-.59-27.45-2.43l2.58.34q-2.68-.36-5.36-.77l6.78,12a92.19,92.19,0,0,1,5.48-18l-1,2.32a95.51,95.51,0,0,1,12.16-20.86l-1.52,2a93,93,0,0,1,16.42-16.52l-2,1.52q3.63-2.81,7.52-5.23a10.17,10.17,0,0,0,4.47-5.8,9.94,9.94,0,0,0-1-7.49c-2.79-4.32-8.68-6.35-13.29-3.48Z"/></svg>